<?xml version="1.0" encoding="iso-8859-1"?>
<!DOCTYPE svg PUBLIC "-//W3C//DTD SVG 1.1//EN" "http://www.w3.org/Graphics/SVG/1.1/DTD/svg11.dtd">
<svg version="1.1" id="Capa_1" xmlns="http://www.w3.org/2000/svg" xmlns:xlink="http://www.w3.org/1999/xlink" x="0px" y="0px"
	 width="914.035px" height="914.036px" viewBox="0 0 914.035 914.036" style="enable-background:new 0 0 914.035 914.036;"
	 xml:space="preserve">
<g>
	<path fill="#3751FF" d="M18.491,473.511c9.878,8.4,21.96,12.508,33.985,12.507c14.864-0.001,29.637-6.28,40.02-18.491
		c40.557-47.694,89.007-81.192,144.003-99.566c39.618-13.236,68.854-13.583,71.908-13.553l0.31,0.02h425.458L692.506,396.6
		c-20.379,20.625-20.181,53.865,0.444,74.244c10.232,10.11,23.567,15.155,36.898,15.155c13.541,0,27.078-5.207,37.347-15.6
		l131.684-133.271c9.786-9.905,15.236-23.291,15.153-37.215c-0.083-13.923-5.694-27.244-15.599-37.03l-131.48-129.912
		c-20.625-20.379-53.865-20.18-74.244,0.445s-20.181,53.866,0.444,74.245l42.271,41.768H310.529
		c-16.884-0.271-171.723,1.555-298.023,150.079C-6.276,421.597-3.598,454.729,18.491,473.511z"/>
	<path fill="#3751FF" d="M147.081,781.064c10.232,10.109,23.567,15.155,36.898,15.155c13.541,0,27.078-5.207,37.347-15.601
		c20.379-20.625,20.18-53.866-0.445-74.245l-42.271-41.768h424.896c0.521,0.008,1.169,0.014,1.946,0.014
		c24.466,0,173.667-6.146,296.076-150.093c18.783-22.088,16.104-55.221-5.983-74.004c-22.09-18.784-55.223-16.104-74.006,5.983
		c-40.557,47.694-89.007,81.192-144.003,99.566c-39.36,13.15-68.487,13.553-71.845,13.553c-0.021,0-0.043,0-0.062,0l-0.31-0.02
		H179.86l41.668-42.171c20.379-20.625,20.18-53.866-0.445-74.245c-20.625-20.379-53.865-20.181-74.245,0.444L15.156,576.907
		c-9.786,9.905-15.237,23.291-15.154,37.215c0.083,13.923,5.695,27.244,15.599,37.03L147.081,781.064z"/>
</g>
<g>
</g>
<g>
</g>
<g>
</g>
<g>
</g>
<g>
</g>
<g>
</g>
<g>
</g>
<g>
</g>
<g>
</g>
<g>
</g>
<g>
</g>
<g>
</g>
<g>
</g>
<g>
</g>
<g>
</g>
</svg>
